<?xml version="1.0" encoding="UTF-8" standalone="no"?>
<!-- Created with Inkscape (http://www.inkscape.org/) -->

<svg
   width="20mm"
   height="20mm"
   viewBox="0 0 20 20"
   version="1.1"
   id="svg1"
   xml:space="preserve"
   inkscape:version="1.3.1 (91b66b0783, 2023-11-16)"
   sodipodi:docname="pip boy.svg"
   xmlns:inkscape="http://www.inkscape.org/namespaces/inkscape"
   xmlns:sodipodi="http://sodipodi.sourceforge.net/DTD/sodipodi-0.dtd"
   xmlns="http://www.w3.org/2000/svg"
   xmlns:svg="http://www.w3.org/2000/svg"><sodipodi:namedview
     id="namedview1"
     pagecolor="#ffffff"
     bordercolor="#000000"
     borderopacity="0.25"
     inkscape:showpageshadow="2"
     inkscape:pageopacity="0.0"
     inkscape:pagecheckerboard="0"
     inkscape:deskcolor="#d1d1d1"
     inkscape:document-units="mm"
     inkscape:zoom="8.3597643"
     inkscape:cx="33.852629"
     inkscape:cy="47.668808"
     inkscape:window-width="1680"
     inkscape:window-height="1237"
     inkscape:window-x="245"
     inkscape:window-y="33"
     inkscape:window-maximized="0"
     inkscape:current-layer="layer1" /><defs
     id="defs1" /><g
     inkscape:label="Layer 1"
     inkscape:groupmode="layer"
     id="layer1"
     transform="translate(-92.376724,-132.50844)"><path
       style="fill:#000000"
       d="m 99.308377,151.82194 c -0.71978,-0.19461 -1.17341,-0.41617 -1.80542,-0.88178 -1.321478,-0.97353 -2.187877,-2.28942 -2.640038,-4.00967 -0.166888,-0.63493 -0.19574,-0.9517 -0.195112,-2.14212 7.89e-4,-1.49533 0.08831,-2.01229 0.528375,-3.12107 l 0.213825,-0.53875 -0.218994,-0.43492 c -0.458236,-0.91005 -0.472885,-1.51696 -0.05404,-2.23863 0.150815,-0.25986 0.152883,-0.298 0.02913,-0.5373 -0.151049,-0.2921 -0.181744,-1.18447 -0.05199,-1.51133 0.168139,-0.42353 0.5954,-0.89537 1.064821,-1.17592 0.264049,-0.15781 0.498582,-0.26844 0.521183,-0.24583 0.0226,0.0226 -0.01871,0.18421 -0.0918,0.35915 -0.27567,0.65977 -0.004,1.01925 0.71629,0.94792 0.34065,-0.0337 0.43488,-0.10066 1.05833,-0.75161 0.74249,-0.77525 1.01945,-0.90942 1.886043,-0.91373 0.78248,-0.004 1.00954,-0.10825 1.61996,-0.74463 0.44317,-0.46202 0.64048,-0.60655 0.89265,-0.65386 0.4614,-0.0866 0.91029,0.0752 1.46722,0.52887 0.42471,0.34593 0.56749,0.40833 1.24552,0.54435 0.42119,0.0845 0.86193,0.22474 0.9794,0.31165 0.11748,0.0869 0.40785,0.47187 0.64528,0.85546 0.3517,0.5682 0.51305,0.74389 0.87075,0.94818 0.50693,0.28952 1.10065,1.04096 1.56022,1.97465 0.35134,0.71382 0.41019,1.00932 0.40465,2.03174 -0.007,1.28279 -0.41366,2.88519 -1.01331,3.99232 -0.25911,0.47839 -0.25933,0.47995 -0.097,0.68634 0.38265,0.48647 0.2609,1.54052 -0.24902,2.15585 -0.29342,0.35409 -0.87077,0.66377 -1.23748,0.66377 -0.21415,0 -0.31722,0.0934 -0.72435,0.65617 -1.22541,1.69395 -2.36371,2.54298 -4.24158,3.16368 -0.78486,0.25943 -2.27861,0.29869 -3.083553,0.0811 z m 3.035963,-0.54882 c 0.45192,-0.15332 1.03741,-0.40829 1.30109,-0.56659 0.71034,-0.42645 1.56571,-1.25554 2.29381,-2.22331 0.63862,-0.84883 0.65076,-0.85925 1.07721,-0.92425 0.59938,-0.0914 1.00206,-0.38289 1.26914,-0.91887 0.12214,-0.2451 0.22208,-0.52876 0.22208,-0.63034 0,-0.25976 -0.22565,-0.7697 -0.43183,-0.97588 -0.18784,-0.18784 -0.16148,-0.41484 0.0482,-0.41484 0.0713,0 0.12966,-0.0417 0.12966,-0.0927 0,-0.2065 -0.97047,-1.53291 -1.36045,-1.85942 -0.43911,-0.36764 -0.51264,-0.50316 -0.27303,-0.50316 0.22064,0 1.13948,0.99726 1.42348,1.54496 0.27978,0.53957 0.42953,0.63219 0.34587,0.21392 -0.0947,-0.47327 -0.73751,-1.43945 -1.37972,-2.07364 -0.34035,-0.33611 -0.61882,-0.63138 -0.61882,-0.65617 0,-0.0248 0.0726,-0.0451 0.16141,-0.0451 0.27482,0 1.22737,1.11696 1.58756,1.86159 0.17895,0.36995 0.35031,0.67394 0.38081,0.67552 0.1184,0.006 -0.0414,-0.74157 -0.26177,-1.22478 -0.24171,-0.53002 -0.79638,-1.14545 -1.42351,-1.57945 -0.19791,-0.13696 -0.35881,-0.29481 -0.35756,-0.35078 0.001,-0.056 0.14777,-0.19143 0.32559,-0.30102 0.40117,-0.24725 0.60347,-0.57842 0.60347,-0.98794 0,-0.25423 -0.0652,-0.37961 -0.34075,-0.65515 l -0.34076,-0.34076 -0.54301,0.0507 c -0.29866,0.0279 -0.77388,0.11053 -1.05606,0.18365 -0.60062,0.15564 -0.77731,0.0961 -1.27542,-0.42965 -0.58251,-0.61485 -1.38003,-0.78487 -2.11593,-0.45108 -0.5288,0.23986 -1.04731,0.2262 -1.57937,-0.0416 -0.239593,-0.12059 -0.524433,-0.21926 -0.632973,-0.21926 -0.13945,0 -0.45875,0.26806 -1.08837,0.91373 -0.70562,0.7236 -0.96673,0.93597 -1.25485,1.0206 -0.301988,0.0887 -0.415262,0.18727 -0.666471,0.57997 -0.415372,0.64933 -0.842237,1.60882 -1.101086,2.47498 -0.295973,0.99039 -0.368369,2.70158 -0.158185,3.73897 0.397436,1.9616 1.277983,3.45051 2.677552,4.52746 1.39683,1.07483 2.670283,1.27097 4.413023,0.6797 z m -3.615673,-2.30995 -0.254,-0.14055 0.28256,-0.0741 c 0.15541,-0.0408 0.46021,-0.0626 0.67733,-0.0486 0.32983,0.0213 0.39477,0.0534 0.39477,0.19484 0,0.14411 -0.0631,0.17229 -0.42333,0.18917 -0.26898,0.0126 -0.51594,-0.0314 -0.67733,-0.12071 z m -0.0996,-0.82034 c -0.39637,-0.12955 -1.4317,-0.68927 -1.51034,-0.81652 -0.0897,-0.14517 -0.382989,-0.0885 -0.447728,0.0865 -0.05299,0.14325 -0.104954,0.0919 -0.340275,-0.33613 -0.308348,-0.56088 -0.298548,-0.63124 0.146988,-1.05527 l 0.261286,-0.24868 v 0.21714 c 0,0.29891 0.109956,0.36586 0.888999,0.54128 1.04731,0.23584 2.00254,0.19909 3.217333,-0.12376 1.12225,-0.29825 1.39158,-0.46604 1.23068,-0.76669 -0.21071,-0.39372 -0.0124,-0.34292 0.61848,0.15841 0.36151,0.28727 0.67783,0.57586 0.70295,0.64132 0.0251,0.0654 0.006,0.2444 -0.042,0.39766 -0.0482,0.15326 -0.13601,0.45011 -0.19516,0.65966 l -0.10753,0.381 -0.0454,-0.4226 c -0.0327,-0.3045 -0.085,-0.4301 -0.187,-0.44944 -0.0779,-0.0148 -0.43983,0.146 -0.80434,0.35726 -1.04479,0.60555 -1.6721,0.83187 -2.398393,0.86527 -0.38643,0.0178 -0.77342,-0.016 -0.9886,-0.0864 z m 2.343263,-0.59613 c 0.95771,-0.38753 1.6501,-0.76378 1.67735,-0.91148 0.0147,-0.0797 -0.0683,-0.20483 -0.18768,-0.28306 -0.20278,-0.13286 -0.24869,-0.12878 -0.87302,0.0776 -1.46168,0.48314 -2.398143,0.57172 -3.622313,0.34265 -0.37254,-0.0697 -0.80049,-0.14946 -0.951,-0.17722 -0.343127,-0.0633 -0.471914,0.15862 -0.224933,0.38755 0.149033,0.13814 0.869723,0.48254 1.556933,0.74402 0.50126,0.19072 1.954793,0.091 2.624663,-0.18004 z m -2.367513,-2.75368 c -0.188,-0.27684 -0.34182,-0.55581 -0.34182,-0.61993 0,-0.0641 0.23098,-0.38053 0.51329,-0.70314 0.28231,-0.32262 0.68569,-0.88185 0.89641,-1.24274 0.346643,-0.59369 0.537633,-0.79757 0.537633,-0.57392 0,0.15466 -0.421913,1.03648 -0.854743,1.78644 l -0.43247,0.74933 0.3017,0.48232 c 0.16593,0.26528 0.28186,0.51443 0.25761,0.55366 -0.0242,0.0392 -0.15472,0.0713 -0.28994,0.0713 -0.20545,0 -0.30201,-0.0827 -0.58767,-0.50335 z m 8.051023,-0.26678 c -0.19847,-0.23897 -0.25853,-0.37071 -0.19704,-0.4322 0.12898,-0.12898 0.52487,0.29604 0.52487,0.56349 0,0.11853 -0.01,0.21482 -0.0212,0.21399 -0.0116,-8.4e-4 -0.14964,-0.15622 -0.30666,-0.34528 z m 0.30705,-0.76548 c -0.52385,-0.52424 -0.63863,-0.79802 -0.24658,-0.5882 0.31571,0.16896 0.97396,1.06532 0.84123,1.14552 -0.013,0.008 -0.28054,-0.24297 -0.59465,-0.55732 z m -3.82858,-1.00602 c -0.27776,-0.18453 -0.69686,-0.39807 -0.93133,-0.47454 -0.59043,-0.19256 -0.60792,-0.21015 -0.34562,-0.34758 0.61066,-0.31996 1.46169,-0.20048 1.77683,0.24944 0.13273,0.1895 0.18743,0.91506 0.0686,0.91059 -0.0349,-0.001 -0.29076,-0.15338 -0.56852,-0.33791 z m -6.008263,0.12259 c -0.0871,-0.0871 -0.13262,-0.28442 -0.1318,-0.5715 0.002,-0.56246 0.14895,-0.86179 0.42422,-0.86179 0.16688,0 0.22998,0.0647 0.31436,0.32223 0.12685,0.38721 0.0234,0.97187 -0.20091,1.13592 -0.19094,0.13962 -0.24468,0.13633 -0.40587,-0.0249 z m 6.454083,-2.53427 c -0.27905,-0.26024 -0.59881,-0.47555 -0.75826,-0.51057 l -0.27571,-0.0606 0.23381,-0.20111 c 0.12859,-0.11061 0.26654,-0.20111 0.30656,-0.20111 0.19271,0 1.11816,1.28598 1.00454,1.39589 -0.0156,0.0151 -0.24555,-0.17503 -0.51094,-0.42254 z m -6.587133,-0.28978 c 0,-0.10901 0.71495,-0.59891 0.87403,-0.59891 0.0999,0 0.22664,0.16432 0.22664,0.29384 0,0.0143 -0.14156,0.0525 -0.31458,0.085 -0.17301,0.0325 -0.42066,0.11388 -0.55033,0.18093 -0.12967,0.067 -0.23576,0.0847 -0.23576,0.0391 z m 12.207443,2.05164 c 0.15104,-0.53056 0.18894,-0.88627 0.19218,-1.80388 l 0.004,-1.143 -0.34644,-0.71967 c -0.39268,-0.81573 -0.93754,-1.54587 -1.28939,-1.72781 -0.13088,-0.0677 -0.3964,-0.36804 -0.59003,-0.66744 -0.45203,-0.69897 -0.92962,-1.12728 -1.38884,-1.24553 -0.74076,-0.19074 -1.16648,-0.35412 -1.43936,-0.55237 -0.57489,-0.41768 -1.1333,-0.71595 -1.34181,-0.71672 -0.24047,-8.9e-4 -0.69597,0.43398 -1.21394,1.15892 -0.17292,0.24202 -0.38718,0.46314 -0.47612,0.49137 -0.0889,0.0282 -0.41453,-0.0268 -0.72353,-0.1222 -0.837623,-0.25872 -1.028933,-0.17951 -2.163793,0.89584 -0.72105,0.68324 -1.07777,0.83728 -1.642086,0.70908 -0.388535,-0.0883 -0.719667,-0.42209 -0.719667,-0.72552 0,-0.30031 -0.114308,-0.25534 -0.388665,0.15288 -0.337321,0.50192 -0.392458,1.44185 -0.121524,2.07165 0.367911,0.85523 0.952667,1.13806 1.628322,0.78756 0.19994,-0.10372 0.69904,-0.54539 1.1091,-0.98147 0.97088,-1.0325 1.28933,-1.13014 2.090773,-0.64104 0.16298,0.0995 0.36853,0.18098 0.45676,0.18115 0.0882,1.8e-4 0.55554,-0.21161 1.03845,-0.47064 0.63462,-0.34041 0.93048,-0.4558 1.06724,-0.41626 0.10407,0.0301 0.55725,0.43847 1.00707,0.90751 l 0.81785,0.85281 0.85523,-0.27824 c 0.63789,-0.20754 0.94457,-0.26626 1.20681,-0.23108 0.5789,0.0776 1.04901,0.52852 1.1408,1.09411 0.079,0.48707 -0.0284,0.73263 -0.53244,1.21693 l -0.46847,0.45012 0.31809,0.27903 c 0.78359,0.68739 1.38994,1.58449 1.38994,2.05644 0,0.30079 0.11886,0.32879 0.23084,0.0544 0.0575,-0.14082 0.18913,-0.55343 0.2926,-0.91691 z m -13.18299,-2.11964 c 0.216338,-0.35993 0.354142,-0.66749 0.306231,-0.68346 -0.04791,-0.016 -0.226631,-0.12371 -0.397158,-0.23944 -0.170527,-0.11572 -0.362853,-0.19014 -0.427391,-0.16537 -0.145224,0.0557 -0.284134,0.40632 -0.284134,0.71713 0,0.28753 0.244328,1.02557 0.339514,1.02557 0.03828,0 0.2466,-0.29449 0.462938,-0.65443 z"
       id="path1" /></g></svg>
